<svg id="Layer_1" data-name="Layer 1" xmlns="http://www.w3.org/2000/svg" viewBox="0 0 45.92 58"><defs><style>.cls-1{fill:#3b9bed;stroke:#fff;stroke-linecap:round;stroke-linejoin:round;stroke-width:2px;}.cls-2{fill:#fff;}</style></defs><title>current-property</title><g id="current-property"><g id="Group-Copy-3"><g id="assembly-pin-border-copy-2"><path id="_Path_" data-name="&lt;Path&gt;" class="cls-1" d="M30.75,2A22,22,0,0,0,8.88,24c0,5.25,1.92,10,6.47,16.45q4.2,6.12,15.4,17.5l.88-.87C31.8,57,40.9,46.28,45.45,40.67,50.35,34.55,52.8,29.13,52.8,24A22.3,22.3,0,0,0,30.75,2Z" transform="translate(-7.88 -1)"/></g><g id="property-name-copy"><circle id="Oval" class="cls-2" cx="16.69" cy="20.44" r="2.19"/><path id="Path" class="cls-2" d="M42.94,22.75h-.87a1.35,1.35,0,0,0-1.31,1.31v1.31H21.5v-10a1.35,1.35,0,0,0-1.31-1.31h-.87A1.29,1.29,0,0,0,18,15.4V33.77A1.27,1.27,0,0,0,19.31,35h.88a1.29,1.29,0,0,0,1.31-1.31V30.63H40.75v3.06A1.35,1.35,0,0,0,42.06,35h.88a1.35,1.35,0,0,0,1.31-1.31V24.06A1.35,1.35,0,0,0,42.94,22.75Z" transform="translate(-7.88 -1)"/><path id="Path-2" data-name="Path" class="cls-2" d="M29.81,23.63h7.88a2.19,2.19,0,0,0,0-4.37H29.81a2.19,2.19,0,0,0,0,4.38Z" transform="translate(-7.88 -1)"/></g></g></g></svg>